<svg width="16" height="16" viewBox="0 0 16 16" fill="none" xmlns="http://www.w3.org/2000/svg">
<path d="M8.0001 1.40039L12.9303 2.49599C13.0635 2.52561 13.1827 2.59977 13.2681 2.70623C13.3535 2.8127 13.4001 2.9451 13.4001 3.08159V9.07379C13.4001 9.66643 13.2537 10.2499 12.974 10.7724C12.6944 11.2949 12.29 11.7403 11.7969 12.069L8.0001 14.6004L4.2033 12.069C3.71026 11.7403 3.30597 11.295 3.02631 10.7727C2.74664 10.2503 2.60024 9.66693 2.6001 9.07439V3.08159C2.60012 2.9451 2.64668 2.8127 2.73209 2.70623C2.8175 2.59977 2.93666 2.52561 3.0699 2.49599L8.0001 1.40039ZM8.0001 2.62979L3.8001 3.56279V9.07379C3.8001 9.46887 3.89764 9.85783 4.08405 10.2062C4.27047 10.5545 4.53999 10.8514 4.8687 11.0706L8.0001 13.1586L11.1315 11.0706C11.4601 10.8515 11.7296 10.5546 11.916 10.2064C12.1024 9.85821 12.2 9.46936 12.2001 9.07439V3.56279L8.0001 2.63039V2.62979ZM8.0001 5.00039C8.2643 5.00027 8.52116 5.08735 8.73082 5.24811C8.94048 5.40887 9.09123 5.63433 9.15968 5.88951C9.22812 6.1447 9.21044 6.41534 9.10937 6.65944C9.0083 6.90355 8.8295 7.10748 8.6007 7.23959L8.6001 9.80039H7.4001V7.23959C7.17134 7.1075 6.99256 6.90363 6.89148 6.65958C6.7904 6.41553 6.77267 6.14495 6.84104 5.8898C6.90941 5.63465 7.06006 5.40919 7.26962 5.24838C7.47918 5.08757 7.73595 5.0004 8.0001 5.00039Z" fill="white"/>
</svg>
