<svg width="18" height="18" viewBox="0 0 18 18" fill="none" xmlns="http://www.w3.org/2000/svg">
<path d="M1.8975 11.0775C1.73775 12.123 2.451 12.8483 3.324 13.2098C6.67125 14.5973 11.3288 14.5973 14.676 13.2098C15.549 12.8483 16.2622 12.1223 16.1025 11.0775C16.005 10.4348 15.5198 9.9 15.1605 9.37725C14.6903 8.68425 14.6438 7.929 14.643 7.125C14.6438 4.0185 12.1177 1.5 9 1.5C5.88225 1.5 3.35625 4.0185 3.35625 7.125C3.35625 7.929 3.30975 8.685 2.83875 9.37725C2.48025 9.9 1.99575 10.4348 1.8975 11.0775Z" stroke="white" stroke-width="1.125" stroke-linecap="round" stroke-linejoin="round"/>
<path d="M6 14.25C6.3435 15.5438 7.557 16.5 9 16.5C10.4437 16.5 11.6558 15.5438 12 14.25" stroke="white" stroke-width="1.125" stroke-linecap="round" stroke-linejoin="round"/>
</svg>
