<svg width="175" height="25" viewBox="0 0 175 25" fill="none" xmlns="http://www.w3.org/2000/svg">
<g clip-path="url(#clip0_271_3923)">
<path d="M25.3005 23.9967H42.0084V19.584H30.3477V14.1663H40.0069V9.75357H30.3477V4.72916H42.0519V0.316406H25.3005V23.9967ZM62.1101 15.2149L51.1455 0.316406H43.6183L45.9678 3.33106V24.0841H50.9715V8.53024L62.2841 23.9967H67.1137V0.316406H62.0666L62.1101 15.2149ZM17.6863 11.807C19.9053 11.4138 21.7327 9.31667 21.7327 6.3894C21.7327 3.24368 19.4702 0.316406 14.9016 0.316406H0.282227L2.58826 3.24368V23.9967H15.4237C19.9488 23.9967 22.3418 21.1568 22.3418 17.5742C22.2113 14.6906 20.2534 12.1566 17.6863 11.807ZM7.59192 4.77285H13.9009C15.5978 4.77285 16.6855 5.77773 16.6855 7.26321C16.6855 8.74869 15.5978 9.75357 13.9009 9.75357H7.59192V4.77285ZM14.1184 19.6276H7.59192V14.1663H14.1184C16.0329 14.1663 17.1206 15.3897 17.1206 16.8751C17.1206 18.5791 15.9894 19.584 14.1184 19.6276ZM140.95 15.2149H143.561V18.0111C142.212 19.1034 140.515 19.7587 138.731 19.8024C134.511 19.8024 131.552 16.5693 131.552 12.2439C131.552 7.91857 134.554 4.68546 138.731 4.68546C140.907 4.68546 142.952 5.82142 144.127 7.70012L148.13 5.4719C146.433 2.71939 143.43 0.316406 138.688 0.316406C132.031 0.316406 126.461 4.94761 126.461 12.1566C126.461 19.3655 131.944 23.9967 138.688 23.9967C142.386 24.0841 145.91 22.4675 148.347 19.715V10.9769H137.557L140.95 15.2149ZM118.238 15.2149L107.274 0.316406H99.7898L102.096 3.33106V24.0841H107.143V8.53024L118.456 23.9967H123.242V0.316406H118.238V15.2149ZM165.055 0.316406H155.352L157.658 3.33106L157.267 4.46701L149.739 24.0404H155.439L156.919 20.0209H167.056L168.536 24.0404H174.236L165.055 0.316406ZM158.18 15.6081L161.879 5.4282L165.577 15.6081H158.18ZM91.784 0.316406H96.8311V24.0841H91.784V0.316406ZM87.781 4.37963V0.316406H70.0289V4.72916H81.1675L70.0289 19.9335V23.9967H87.9986V19.584H76.5989L87.781 4.37963Z" fill="white"/>
</g>
<defs>
<clipPath id="clip0_271_3923">
<rect width="173.91" height="23.7677" fill="white" transform="translate(0.282227 0.316406)"/>
</clipPath>
</defs>
</svg>
