<svg width="20" height="21" viewBox="0 0 20 21" fill="none" xmlns="http://www.w3.org/2000/svg">
<path d="M12.24 9.49998C11.93 10.74 10 10.11 9.4 9.93998L9.95 7.75998C10.57 7.93998 12.56 8.19998 12.24 9.49998ZM9.13 11.06L8.53 13.47C9.27 13.66 11.56 14.39 11.9 13.03C12.26 11.61 9.87 11.24 9.13 11.06ZM19.7 13.36C18.36 18.72 12.94 21.98 7.58 20.64C2.22 19.3 -1.037 13.88 0.300001 8.51998C0.617644 7.24607 1.18313 6.04721 1.96417 4.99188C2.74521 3.93655 3.72649 3.04542 4.85198 2.36938C5.97747 1.69334 7.22511 1.24565 8.52365 1.05187C9.82218 0.858081 11.1462 0.922004 12.42 1.23998C17.77 2.57998 21.03 7.99998 19.7 13.36ZM12.21 6.98998L12.66 5.18998L11.56 4.93998L11.12 6.66998C10.83 6.59998 10.54 6.52998 10.24 6.46998L10.68 4.69998L9.59 4.43998L9.14 6.22998C8.9 6.16998 8.66 6.11998 8.44 6.05998L6.93 5.67998L6.63 6.84998C6.63 6.84998 7.45 7.03998 7.43 7.04998C7.88 7.15998 7.96 7.43998 7.94 7.68998L6.71 12.62C6.66 12.76 6.5 12.94 6.21 12.89C6.22 12.9 5.41 12.69 5.41 12.69L4.87 13.94L6.29 14.3C6.56 14.37 6.82 14.44 7.08 14.5L6.62 16.32L7.72 16.6L8.17 14.79C8.47 14.87 8.76 14.94 9.04 15.02L8.59 16.81L9.69 17.09L10.15 15.27C12 15.62 13.42 15.48 14 13.79C14.5 12.44 14 11.64 13 11.13C13.72 10.94 14.26 10.49 14.41 9.50998C14.61 8.17998 13.59 7.46998 12.21 6.98998Z" fill="white"/>
</svg>
