<svg width="24" height="25" viewBox="0 0 24 25" fill="none" xmlns="http://www.w3.org/2000/svg">
<path opacity="0.5" d="M9.99976 20.9404H13.9998C17.771 20.9404 19.6566 20.9404 20.8282 19.7689C21.9998 18.5973 21.9998 16.7117 21.9998 12.9404C21.9998 12.4985 21.9981 11.3325 21.9962 10.9404H2C1.99811 11.3325 1.99976 12.4985 1.99976 12.9404C1.99976 16.7117 1.99976 18.5973 3.17133 19.7689C4.34291 20.9404 6.22852 20.9404 9.99976 20.9404Z" fill="white"/>
<path d="M9.99484 4.94043H14.0052C17.7861 4.94043 19.6766 4.94043 20.8512 6.05621C21.6969 6.85959 21.9337 8.0155 22 9.94043V10.9404H2V9.94043C2.0663 8.0155 2.3031 6.85959 3.14881 6.05621C4.3234 4.94043 6.21388 4.94043 9.99484 4.94043Z" fill="white"/>
<path d="M12.5 16.1904C12.0858 16.1904 11.75 16.5262 11.75 16.9404C11.75 17.3546 12.0858 17.6904 12.5 17.6904H14C14.4142 17.6904 14.75 17.3546 14.75 16.9404C14.75 16.5262 14.4142 16.1904 14 16.1904H12.5Z" fill="white"/>
<path d="M6 16.1904C5.58579 16.1904 5.25 16.5262 5.25 16.9404C5.25 17.3546 5.58579 17.6904 6 17.6904H10C10.4142 17.6904 10.75 17.3546 10.75 16.9404C10.75 16.5262 10.4142 16.1904 10 16.1904H6Z" fill="white"/>
</svg>
