<svg width="232" height="38" viewBox="0 0 232 38" fill="none" xmlns="http://www.w3.org/2000/svg">
<path fill-rule="evenodd" clip-rule="evenodd" d="M6.97959 0C3.12487 0 0 3.12487 0 6.97959V31.0204C0 34.8751 3.12487 38 6.97959 38H31.0204C34.8751 38 38 34.8751 38 31.0204V6.97959C38 3.12487 34.8751 0 31.0204 0H6.97959ZM9.30612 7.7551H12.7959V30.2449H9.30612V31.602H28.5V30.2449H25.0102V7.7551H28.5V6.39796H9.30612V7.7551ZM16.4796 7.7551H21.5204V30.2449H16.4796V7.7551Z" fill="url(#paint0_linear_2133_27993)"/>
<path fill-rule="evenodd" clip-rule="evenodd" d="M80.5219 11.1353C77.3051 12.5964 75.6478 15.6529 75.8543 19.7439C75.9678 21.9923 76.1811 22.731 77.099 24.0554C78.7229 26.3987 80.8309 27.5037 83.6779 27.5037C86.4968 27.5037 87.7396 27.0664 89.4095 25.4876C91.8495 23.18 92.7765 19.343 91.6833 16.0773C90.1782 11.5817 84.7905 9.19592 80.5219 11.1353ZM114.448 10.7242L113.054 10.8434L110.511 17.1808C109.112 20.6659 107.652 24.424 107.267 25.5309L106.567 27.5443L108.323 27.4289C110.011 27.3184 110.103 27.2509 110.666 25.7006L111.252 24.0873H114.728H118.204L118.857 25.7955C119.494 27.4638 119.549 27.5037 121.186 27.5037C122.108 27.5037 122.863 27.3583 122.863 27.1803C122.863 26.6469 116.453 11.0658 116.135 10.8263C115.973 10.7045 115.214 10.6585 114.448 10.7242ZM48.0815 19.1525V27.5037H49.7897H51.498V24.2771V21.0505H53.3831C56.8313 21.0505 59.0372 19.31 59.3739 16.3233C59.5983 14.33 58.7502 12.5645 57.0785 11.5453C56.0824 10.9375 55.1619 10.8039 51.9725 10.8028L48.0815 10.8012V19.1525ZM61.7472 19.1525V27.5037H63.4554H65.1636V24.2456C65.1636 21.8089 65.2832 21.0266 65.6381 21.1431C65.8993 21.2289 66.9667 22.5165 68.0106 24.0045C70.2168 27.1495 70.8834 27.5975 73.114 27.4342L74.7561 27.3139L72.0549 24.0873C70.5691 22.3127 69.3502 20.7696 69.3464 20.658C69.3426 20.5464 69.8687 20.1421 70.5156 19.7602C72.4637 18.6093 73.3189 15.5428 72.2701 13.4698C72.0089 12.9543 71.2175 12.1428 70.5114 11.6667C69.3901 10.9113 68.7516 10.8012 65.487 10.8012H61.7472V19.1525ZM94.3929 19.1525V27.5037H96.1011H97.8093V24.2771V21.0505L99.8022 21.0497C103.58 21.049 105.927 19.0306 105.927 15.7824C105.927 11.9924 104.08 10.8012 98.201 10.8012H94.3929V19.1525ZM124.381 19.1525V27.5037H126.09H127.798V23.8546V20.2055L130.455 20.3558L133.112 20.5057V19.0701V17.6341H130.455H127.798V15.5463V13.4585H130.645H133.492V12.1299V10.8012H128.937H124.381V19.1525ZM135.772 16.5902C135.774 23.3619 136.074 24.7482 137.88 26.3338C139.105 27.4099 139.432 27.5037 141.951 27.5022C143.998 27.501 144.997 27.3135 145.905 26.7597C148.053 25.4504 148.296 24.484 148.296 17.2734V10.8012H146.804H145.312L145.191 16.8623C145.052 23.8189 144.872 24.26 142.177 24.26C141.006 24.26 140.446 24.041 139.904 23.3721C139.269 22.5875 139.186 21.8093 139.186 16.6429V10.8012H137.478H135.769L135.772 16.5902ZM151.333 19.1316V27.5037H152.946H154.56L154.434 23.0434C154.365 20.5904 154.47 18.1572 154.667 17.6363C155.06 16.5966 154.527 15.9065 160.321 24.963C161.974 27.5462 161.975 27.5466 163.582 27.4304L165.188 27.3139V19.1525V10.9911L163.575 10.8745L161.962 10.7576V16.1699C161.962 20.0946 161.848 21.4677 161.546 21.1659C161.317 20.937 159.731 18.5538 158.023 15.8704L154.916 10.9911L153.124 10.8753L151.333 10.7595V19.1316ZM168.415 19.1168V27.5037L171.167 27.5014C172.681 27.5003 174.572 27.3181 175.37 27.0968C177.146 26.6037 179.605 24.4445 180.59 22.515C182.253 19.2546 180.848 14.3934 177.589 12.1321C176.077 11.0833 175.64 10.9804 172.18 10.8605L168.415 10.7303V19.1168ZM54.572 13.6839C54.9056 13.7766 55.3714 14.2757 55.6071 14.7928C56.4639 16.6733 54.9425 18.3933 52.4223 18.3933C51.5298 18.3933 51.498 18.3003 51.498 15.7061V13.0185L52.7317 13.2668C53.4104 13.4034 54.2383 13.5909 54.572 13.6839ZM68.5485 14.0373C69.253 14.7237 69.2375 16.7595 68.5219 17.475C68.2118 17.7851 67.3292 18.1412 66.5609 18.2657L65.1636 18.4927V15.7437V12.9942L66.5871 13.2542C67.3702 13.397 68.2528 13.7496 68.5485 14.0373ZM101.7 14.1379C102.382 14.7297 102.577 16.3324 102.066 17.1357C101.694 17.7206 99.9115 18.3933 98.7336 18.3933C97.8514 18.3933 97.8093 18.2832 97.8093 15.9893C97.8093 14.6667 97.9099 13.4843 98.0329 13.3613C98.4128 12.9813 100.999 13.5291 101.7 14.1379ZM86.8601 14.874C88.7277 16.6072 88.9885 20.3425 87.4097 22.7515C87.0764 23.2601 86.1255 23.8796 85.2965 24.1279C80.9231 25.4383 77.7383 20.5855 80.0383 16.1157C80.6961 14.8368 81.2511 14.2974 82.2456 13.9694C83.9842 13.3962 85.6116 13.7151 86.8601 14.874ZM175.872 15.0953C177.016 16.1438 177.274 16.6706 177.428 18.2684C177.755 21.6761 176.031 23.9286 172.905 24.1769L171.642 24.2771L171.536 19.0576L171.431 13.8381H172.965C174.173 13.8381 174.792 14.1057 175.872 15.0953ZM116.634 20.1022C116.866 21.0292 116.823 21.0505 114.743 21.0505C113.572 21.0505 112.614 20.926 112.614 20.7737C112.614 20.6215 113.072 19.2986 113.631 17.8334L114.65 15.1697L115.523 17.1618C116.003 18.2578 116.503 19.581 116.634 20.1022Z" fill="white"/>
<defs>
<linearGradient id="paint0_linear_2133_27993" x1="19" y1="0" x2="19" y2="38" gradientUnits="userSpaceOnUse">
<stop stop-color="white"/>
<stop offset="1" stop-color="#4EB2E4"/>
</linearGradient>
</defs>
</svg>
