<svg width="26" height="19" viewBox="0 0 26 19" fill="none" xmlns="http://www.w3.org/2000/svg">
<path d="M21.4875 1.65312C19.9125 0.953125 18.25 0.428125 16.5 0.078125H16.4125C16.2375 0.428125 15.975 0.953125 15.8 1.39062C13.875 1.12812 12.0375 1.12812 10.2 1.39062C10.025 0.953125 9.76249 0.515625 9.58749 0.078125H9.49999C7.74999 0.340625 6.08749 0.865625 4.51249 1.65312C1.36249 6.37812 0.487486 11.0156 0.924986 15.5656V15.6531C3.02499 17.2281 5.03749 18.1031 7.04999 18.7156H7.13749C7.57499 18.1031 8.01249 17.4031 8.36249 16.7031V16.6156C7.66249 16.3531 7.04999 16.0906 6.43749 15.7406C6.34999 15.7406 6.34999 15.6531 6.43749 15.6531C6.52499 15.5656 6.69999 15.4781 6.78749 15.3906H6.87499C10.9 17.2281 15.1875 17.2281 19.2125 15.3906H19.3C19.3875 15.4781 19.5625 15.5656 19.65 15.6531C19.7375 15.6531 19.65 15.7406 19.65 15.7406C19.0375 16.0906 18.425 16.4406 17.725 16.6156C17.725 16.6156 17.6375 16.7031 17.725 16.7031C18.075 17.4031 18.5125 18.1031 18.95 18.7156H19.0375C21.05 18.1031 23.0625 17.1406 25.1625 15.6531V15.5656C25.6875 10.3156 24.2875 5.76562 21.4875 1.65312ZM8.97499 12.8531C7.74999 12.8531 6.78749 11.7156 6.78749 10.4031C6.78749 9.09062 7.74999 7.95312 8.97499 7.95312C10.2 7.95312 11.1625 9.09062 11.1625 10.4031C11.1625 11.7156 10.2 12.8531 8.97499 12.8531ZM17.1125 12.8531C15.8875 12.8531 14.925 11.7156 14.925 10.4031C14.925 9.09062 15.8875 7.95312 17.1125 7.95312C18.3375 7.95312 19.3 9.09062 19.3 10.4031C19.3 11.7156 18.3375 12.8531 17.1125 12.8531Z" fill="white"/>
</svg>
