<svg width="22" height="22" viewBox="0 0 22 22" fill="none" xmlns="http://www.w3.org/2000/svg">
<path d="M11 2.83218C13.8035 2.83218 14.136 2.84268 15.2429 2.89343C15.9087 2.9006 16.5682 3.02286 17.1924 3.2548C17.6452 3.42977 18.0564 3.69748 18.3997 4.04074C18.743 4.384 19.0107 4.79524 19.1856 5.24805C19.4176 5.8722 19.5398 6.53175 19.547 7.19755C19.5977 8.30443 19.6082 8.63693 19.6082 11.4413C19.6082 14.2457 19.5977 14.5764 19.547 15.6833C19.5398 16.3491 19.4176 17.0087 19.1856 17.6328C19.0107 18.0856 18.743 18.4969 18.3997 18.8401C18.0564 19.1834 17.6452 19.4511 17.1924 19.6261C16.5682 19.858 15.9087 19.9803 15.2429 19.9874C14.136 20.0382 13.8035 20.0487 11 20.0487C8.1965 20.0487 7.864 20.0382 6.75712 19.9874C6.09132 19.9803 5.43177 19.858 4.80763 19.6261C4.35481 19.4511 3.94357 19.1834 3.60031 18.8401C3.25705 18.4969 2.98934 18.0856 2.81437 17.6328C2.58243 17.0087 2.46017 16.3491 2.453 15.6833C2.40225 14.5764 2.39175 14.2439 2.39175 11.4404C2.39175 8.63693 2.40225 8.30443 2.453 7.19755C2.46017 6.53175 2.58243 5.8722 2.81437 5.24805C2.98934 4.79524 3.25705 4.384 3.60031 4.04074C3.94357 3.69748 4.35481 3.42977 4.80763 3.2548C5.43177 3.02286 6.09132 2.9006 6.75712 2.89343C7.864 2.84268 8.1965 2.83218 11 2.83218ZM11 0.94043C8.14838 0.94043 7.7905 0.95268 6.6705 1.00343C5.79966 1.0209 4.93811 1.18599 4.1225 1.49168C3.42499 1.76163 2.79153 2.17424 2.26267 2.7031C1.73381 3.23196 1.3212 3.86542 1.05125 4.56293C0.745462 5.37881 0.580367 6.24067 0.563 7.1118C0.51225 8.2318 0.5 8.58793 0.5 11.4404C0.5 14.2929 0.51225 14.6499 0.563 15.7699C0.580466 16.6408 0.745559 17.5023 1.05125 18.3179C1.3212 19.0154 1.73381 19.6489 2.26267 20.1778C2.79153 20.7066 3.42499 21.1192 4.1225 21.3892C4.93838 21.695 5.80025 21.8601 6.67138 21.8774C7.79138 21.9282 8.14838 21.9404 11 21.9404C13.8516 21.9404 14.2095 21.9282 15.3295 21.8774C16.2006 21.8601 17.0625 21.695 17.8784 21.3892C18.5759 21.1192 19.2093 20.7066 19.7382 20.1778C20.2671 19.6489 20.6797 19.0154 20.9496 18.3179C21.2551 17.502 21.4199 16.6401 21.437 15.7691C21.4877 14.6491 21.5 14.2929 21.5 11.4404C21.5 8.58793 21.4877 8.23093 21.437 7.11093C21.4195 6.24009 21.2544 5.37854 20.9488 4.56293C20.6788 3.86542 20.2662 3.23196 19.7373 2.7031C19.2085 2.17424 18.575 1.76163 17.8775 1.49168C17.0616 1.18619 16.1997 1.02139 15.3286 1.0043C14.2086 0.951805 13.8525 0.94043 11 0.94043Z" fill="white"/>
</svg>
