<svg width="24" height="25" viewBox="0 0 24 25" fill="none" xmlns="http://www.w3.org/2000/svg">
<path d="M8.50573 11.6548C8.50573 10.7344 9.2609 9.98815 10.1924 9.98815C11.124 9.98815 11.8792 10.7344 11.8792 11.6548C11.8792 12.5753 11.124 13.3215 10.1924 13.3215C9.2609 13.3215 8.50573 12.5753 8.50573 11.6548Z" fill="white"/>
<path fill-rule="evenodd" clip-rule="evenodd" d="M2 11.6548C2 8.961 2 7.61412 2.84691 6.77727C3.69381 5.94043 5.05688 5.94043 7.78303 5.94043H12.6022C15.3284 5.94043 16.6914 5.94043 17.5384 6.77727C18.3853 7.61412 18.3853 8.961 18.3853 11.6548C18.3853 14.3485 18.3853 15.6954 17.5384 16.5323C16.6914 17.3691 15.3284 17.3691 12.6022 17.3691H7.78303C5.05688 17.3691 3.69381 17.3691 2.84691 16.5323C2 15.6954 2 14.3485 2 11.6548ZM7.05997 11.6548C7.05997 9.94537 8.46243 8.55957 10.1924 8.55957C11.9225 8.55957 13.3249 9.94537 13.3249 11.6548C13.3249 13.3643 11.9225 14.7501 10.1924 14.7501C8.46243 14.7501 7.05997 13.3643 7.05997 11.6548ZM4.16846 13.5596C4.16846 13.9541 4.4921 14.2739 4.89134 14.2739C5.29057 14.2739 5.61422 13.9541 5.61422 13.5596L5.61421 9.75006C5.61421 9.35556 5.29057 9.03576 4.89134 9.03576C4.4921 9.03576 4.16846 9.35556 4.16846 9.75006L4.16846 13.5596ZM15.4936 14.2739C15.0943 14.2739 14.7707 13.9541 14.7707 13.5596V9.75006C14.7707 9.35556 15.0943 9.03576 15.4936 9.03576C15.8928 9.03576 16.2164 9.35556 16.2164 9.75006V13.5596C16.2164 13.9541 15.8928 14.2739 15.4936 14.2739Z" fill="white"/>
<path opacity="0.5" d="M4.06531 17.1654C4.07835 17.3163 4.09401 17.4609 4.11282 17.5991C4.22946 18.4564 4.47899 19.1782 5.05914 19.7514C5.14173 19.8331 5.22737 19.9081 5.31602 19.977C5.8814 20.4909 6.58182 20.7189 7.40596 20.8284C8.24157 20.9394 9.30403 20.9394 10.6222 20.9394H15.5471C16.8653 20.9394 17.9277 20.9394 18.7634 20.8284C19.6309 20.7132 20.3614 20.4666 20.9415 19.8933C21.5217 19.3201 21.7712 18.5983 21.8878 17.741C22.0002 16.9153 22.0002 15.8655 22.0002 14.563V14.4585C22.0002 13.156 22.0002 12.1062 21.8878 11.2805C21.7712 10.4232 21.5217 9.70146 20.9415 9.1282C20.8589 9.04659 20.7733 8.97159 20.6846 8.90266C20.1193 8.3887 19.4188 8.16071 18.5947 8.05123C18.4639 8.03385 18.3276 8.0192 18.1856 8.00684C18.3853 8.84023 18.3853 9.99036 18.3853 11.6546C18.3853 14.3483 18.3853 15.6952 17.5384 16.5321C16.6915 17.3689 15.3284 17.3689 12.6022 17.3689H7.78305C6.08135 17.3689 4.91077 17.3689 4.06531 17.1654Z" fill="white"/>
</svg>
