<svg width="127" height="29" viewBox="0 0 127 29" fill="none" xmlns="http://www.w3.org/2000/svg">
<g clip-path="url(#clip0_271_3926)">
<path d="M70.4913 1.06836H68.0596V27.3669H70.4913V1.06836Z" fill="white"/>
<path d="M101.35 1.06836H109.056V3.27405H106.419V27.4009H103.987V3.27405H101.35V1.06836Z" fill="white"/>
<path d="M65.8309 1.06836V27.4009H63.3307L59.7002 11.4181V27.4009H57.3369V1.06836H59.4947L63.4677 18.5102V1.06836H65.8309Z" fill="white"/>
<path d="M13.3256 1.06836V27.4009H10.9281V4.83499L8.01685 27.4009H6.03035L3.15336 4.83499V27.4009H0.755859V1.06836H4.79736L7.12635 16.9493L9.2841 1.06836H13.3256Z" fill="white"/>
<path d="M42.7454 27.4016C47.7801 20.6148 46.3074 11.0795 39.4574 6.12518C32.6074 1.17087 22.9832 2.59608 17.9827 9.34887C14.0097 14.7104 14.0097 22.0061 17.9827 27.4016H21.1679C16.1332 22.3794 16.1674 14.2353 21.2364 9.281C26.3054 4.32669 34.4912 4.32669 39.5259 9.3828C44.5264 14.371 44.5264 22.4133 39.5259 27.4355L42.7454 27.4016Z" fill="white"/>
<path d="M117.79 27.405H115.427L114.81 21.4666H111.282L110.7 27.405H108.303L111.008 1.10645H114.707L117.79 27.405ZM114.57 19.0913L112.961 4.56768L111.488 19.0913H114.57Z" fill="white"/>
<path d="M88.9167 24.0406C89.0537 24.8551 88.5057 25.6695 87.6837 25.8052C86.8617 25.9409 86.0397 25.398 85.9027 24.5836C85.8684 24.4139 85.8684 24.2103 85.9027 24.0406V4.15554C85.7657 3.34114 86.3137 2.52673 87.1357 2.39099C87.9577 2.25526 88.7797 2.7982 88.9167 3.6126C88.9509 3.78227 88.9509 3.98587 88.9167 4.15554V5.10568V10.06H91.3484V6.25943V5.13962C91.3484 1.84806 90.0469 0.287109 87.3412 0.287109C84.9437 0.287109 83.3682 1.98379 83.3682 4.56275V5.51289V21.9707V23.0226C83.3682 26.3821 84.7039 28.0448 87.4097 28.0448C90.1154 28.0448 91.3827 26.416 91.3827 22.9548V13.4534H86.9302V15.7608H88.9509V23.1584L88.9167 24.0406Z" fill="white"/>
<path d="M98.8825 23.4298V16.5753L93.334 12.4693V4.83422C93.334 1.81412 94.704 0.287109 97.3755 0.287109C100.081 0.287109 101.314 1.81412 101.348 5.17355V6.22549V10.1279H98.8825V4.90208V4.15554C99.0537 3.34114 98.5057 2.56066 97.6837 2.39099C96.8617 2.22133 96.074 2.76426 95.9027 3.57867C95.8685 3.78227 95.8685 3.95194 95.9027 4.15554V11.3155L101.383 15.4215V23.328C101.383 26.416 99.9785 28.0788 97.4097 28.0788C94.7725 28.0788 93.4025 26.5178 93.4025 23.4977V22.4458V17.3218H95.937V24.0406C95.7657 24.8551 96.3137 25.6355 97.1357 25.8052C97.9577 25.9749 98.7455 25.4319 98.9167 24.6175C98.951 24.4139 98.951 24.2443 98.9167 24.0406L98.8825 23.4298Z" fill="white"/>
<path d="M55.8659 27.4009H53.4342C53.0917 26.4846 52.9204 25.5345 52.9547 24.5844L52.9204 23.227V22.5483V17.3904C53.0232 16.6439 52.4752 15.9313 51.7217 15.8295C51.6532 15.8295 51.5847 15.8295 51.5162 15.8295H49.8037V27.4009H47.4404V1.06836H50.5229C53.9822 1.06836 55.3522 2.3239 55.3522 5.68333V10.6376C55.3522 12.8433 54.9754 13.7935 53.2287 14.4043C53.2629 14.4043 53.2629 14.4382 53.2972 14.4382C54.9412 14.9133 55.3179 15.5241 55.3522 17.628V18.5781V23.3967C55.2494 24.754 55.4207 26.1114 55.8659 27.4009ZM49.7694 3.13831V13.5559H50.6257C51.7217 13.7595 52.7492 13.013 52.9204 11.9611C52.9547 11.7575 52.9547 11.5539 52.9204 11.3502V5.98874C52.9204 3.81698 52.4067 3.13831 50.7969 3.13831H49.7694Z" fill="white"/>
<path d="M126.9 27.4009H124.468C124.126 26.4846 123.955 25.5345 123.989 24.5844L123.955 23.227V22.5483V17.3904C124.057 16.6439 123.509 15.9313 122.756 15.8295C122.687 15.8295 122.619 15.8295 122.55 15.8295H120.838V27.4009H118.475V1.06836H121.557C125.016 1.06836 126.386 2.3239 126.386 5.68333V10.6376C126.386 12.8433 126.01 13.7935 124.263 14.4043C124.297 14.4043 124.297 14.4382 124.331 14.4382C125.975 14.9133 126.352 15.5241 126.386 17.628V18.5781V23.3967C126.284 24.754 126.455 26.1114 126.9 27.4009ZM120.804 3.13831V13.5559H121.66C122.756 13.7256 123.783 13.013 123.955 11.9611C123.989 11.7575 123.989 11.5539 123.955 11.3502V5.98874C123.955 3.81698 123.441 3.13831 121.831 3.13831H120.804Z" fill="white"/>
<path d="M81.1777 1.06836V27.4009H78.6432L75.0127 11.4181V27.4009H72.6494V1.06836H74.8414L78.7802 18.5102V1.06836H81.1777Z" fill="white"/>
</g>
<defs>
<clipPath id="clip0_271_3926">
<rect width="126.143" height="27.8256" fill="white" transform="translate(0.755859 0.287109)"/>
</clipPath>
</defs>
</svg>
