<svg width="20" height="21" viewBox="0 0 20 21" fill="none" xmlns="http://www.w3.org/2000/svg">
<path fill-rule="evenodd" clip-rule="evenodd" d="M10 20.4404C15.5228 20.4404 20 15.9633 20 10.4404C20 4.91758 15.5228 0.44043 10 0.44043C4.47715 0.44043 0 4.91758 0 10.4404C0 15.9633 4.47715 20.4404 10 20.4404ZM10.75 7.44043C10.75 7.02622 10.4142 6.69043 10 6.69043C9.58579 6.69043 9.25 7.02622 9.25 7.44043L9.25 9.69045H7C6.58579 9.69045 6.25 10.0262 6.25 10.4405C6.25 10.8547 6.58579 11.1905 7 11.1905H9.25V13.4404C9.25 13.8546 9.58578 14.1904 10 14.1904C10.4142 14.1904 10.75 13.8546 10.75 13.4404L10.75 11.1905H13C13.4142 11.1905 13.75 10.8547 13.75 10.4405C13.75 10.0262 13.4142 9.69045 13 9.69045H10.75V7.44043Z" fill="url(#paint0_linear_2337_1459)"/>
<defs>
<linearGradient id="paint0_linear_2337_1459" x1="10" y1="0.44043" x2="10" y2="20.4404" gradientUnits="userSpaceOnUse">
<stop stop-color="#3BA9F4"/>
<stop offset="1" stop-color="#4F54B2"/>
</linearGradient>
</defs>
</svg>
