<svg width="181" height="39" viewBox="0 0 181 39" fill="none" xmlns="http://www.w3.org/2000/svg">
<path d="M0 7.54191C0 3.70717 3.10866 0.598511 6.9434 0.598511H30.8595C34.6943 0.598511 37.8029 3.70718 37.8029 7.54191V31.458C37.8029 35.2928 34.6943 38.4014 30.8595 38.4014H6.9434C3.10866 38.4014 0 35.2928 0 31.458V7.54191Z" fill="url(#paint0_linear_2127_61)"/>
<path fill-rule="evenodd" clip-rule="evenodd" d="M12.7296 8.3134H9.25786V6.96329H28.3522V8.3134H24.8805V30.6866H28.3522V32.0367H9.25786V30.6866H12.7296V8.3134ZM21.4088 8.3134H16.3941V30.6866H21.4088V8.3134Z" fill="white"/>
<path fill-rule="evenodd" clip-rule="evenodd" d="M80.1044 11.6761C76.9043 13.1296 75.2556 16.1703 75.461 20.24C75.5739 22.4767 75.7862 23.2116 76.6993 24.5292C78.3148 26.8603 80.4118 27.9596 83.244 27.9596C86.0483 27.9596 87.2847 27.5246 88.9459 25.954C91.3733 23.6584 92.2955 19.8413 91.2079 16.5925C89.7106 12.1202 84.3509 9.74676 80.1044 11.6761ZM113.854 11.2671L112.468 11.3857L109.938 17.6903C108.547 21.1573 107.094 24.8959 106.711 25.997L106.015 28L107.762 27.8852C109.441 27.7753 109.532 27.7081 110.092 26.1658L110.675 24.5609H114.134H117.592L118.241 26.2602C118.874 27.9199 118.929 27.9596 120.558 27.9596C121.475 27.9596 122.226 27.815 122.226 27.6378C122.226 27.1073 115.849 11.607 115.532 11.3687C115.371 11.2475 114.616 11.2018 113.854 11.2671ZM47.8323 19.6517V27.9596H49.5316H51.231V24.7497V21.5398H53.1063C56.5367 21.5398 58.7311 19.8084 59.0661 16.8372C59.2893 14.8542 58.4457 13.0979 56.7826 12.0839C55.7917 11.4793 54.8759 11.3464 51.703 11.3453L47.8323 11.3438V19.6517ZM61.4271 19.6517V27.9596H63.1264H64.8258V24.7184C64.8258 22.2944 64.9447 21.5161 65.2978 21.632C65.5576 21.7173 66.6195 22.9983 67.658 24.4786C69.8528 27.6073 70.5159 28.0529 72.7349 27.8905L74.3685 27.7708L71.6813 24.5609C70.2032 22.7955 68.9907 21.2604 68.9869 21.1494C68.9831 21.0383 69.5065 20.6362 70.15 20.2563C72.088 19.1113 72.9388 16.0608 71.8954 13.9985C71.6356 13.4857 70.8482 12.6783 70.1458 12.2048C69.0303 11.4533 68.3951 11.3438 65.1475 11.3438H61.4271V19.6517ZM93.9035 19.6517V27.9596H95.6028H97.3021V24.7497V21.5398L99.2847 21.5391C103.043 21.5383 105.378 19.5305 105.378 16.2991C105.378 12.5288 103.54 11.3438 97.6919 11.3438H93.9035V19.6517ZM123.736 19.6517V27.9596H125.436H127.135V24.3294V20.6992L129.779 20.8488L132.422 20.9979V19.5697V18.1411H129.779H127.135V16.0642V13.9872H129.967H132.8V12.6655V11.3438H128.268H123.736V19.6517ZM135.068 17.1027C135.07 23.8392 135.368 25.2184 137.165 26.7957C138.384 27.8663 138.709 27.9596 141.215 27.9581C143.251 27.9569 144.245 27.7704 145.149 27.2194C147.285 25.917 147.527 24.9555 147.527 17.7824V11.3438H146.043H144.558L144.438 17.3734C144.3 24.2939 144.121 24.7327 141.44 24.7327C140.275 24.7327 139.718 24.5148 139.179 23.8494C138.547 23.0689 138.464 22.2947 138.464 17.1552V11.3438H136.765H135.065L135.068 17.1027ZM150.548 19.6309V27.9596H152.153H153.758L153.634 23.5224C153.565 21.0822 153.669 18.6615 153.865 18.1434C154.256 17.1091 153.726 16.4225 159.49 25.4321C161.134 28.0019 161.135 28.0023 162.733 27.8867L164.332 27.7708V19.6517V11.5326L162.727 11.4166L161.122 11.3003V16.6846C161.122 20.589 161.008 21.9549 160.708 21.6546C160.48 21.4269 158.903 19.0562 157.203 16.3867L154.112 11.5326L152.33 11.4174L150.548 11.3022V19.6309ZM167.542 19.6162V27.9596L170.28 27.9573C171.786 27.9562 173.667 27.7749 174.46 27.5548C176.227 27.0642 178.674 24.9163 179.653 22.9967C181.308 19.7533 179.91 14.9173 176.668 12.6677C175.164 11.6243 174.729 11.522 171.287 11.4027L167.542 11.2731V19.6162ZM54.2891 14.2115C54.621 14.3036 55.0843 14.8002 55.3189 15.3146C56.1712 17.1854 54.6576 18.8964 52.1505 18.8964C51.2627 18.8964 51.231 18.8039 51.231 16.2232V13.5495L52.4583 13.7965C53.1335 13.9324 53.9571 14.119 54.2891 14.2115ZM68.1931 14.5631C68.894 15.2458 68.8785 17.2711 68.1667 17.9829C67.8581 18.2914 66.9801 18.6457 66.2158 18.7695L64.8258 18.9954V16.2605V13.5253L66.2419 13.784C67.0209 13.926 67.8989 14.2768 68.1931 14.5631ZM101.173 14.6632C101.851 15.2519 102.045 16.8462 101.537 17.6453C101.167 18.2272 99.3935 18.8964 98.2217 18.8964C97.3441 18.8964 97.3021 18.7869 97.3021 16.5049C97.3021 15.1892 97.4022 14.0129 97.5246 13.8905C97.9026 13.5125 100.475 14.0574 101.173 14.6632ZM86.4097 15.3954C88.2677 17.1197 88.5271 20.8356 86.9565 23.232C86.625 23.738 85.679 24.3543 84.8542 24.6013C80.5035 25.9049 77.3352 21.0772 79.6233 16.6306C80.2777 15.3584 80.8298 14.8218 81.8192 14.4955C83.5488 13.9253 85.1677 14.2425 86.4097 15.3954ZM174.96 15.6155C176.098 16.6586 176.355 17.1827 176.508 18.7722C176.833 22.1622 175.118 24.4031 172.008 24.65L170.752 24.7497L170.647 19.5573L170.542 14.3648H172.068C173.27 14.3648 173.885 14.6311 174.96 15.6155ZM116.029 20.5965C116.26 21.5187 116.218 21.5398 114.148 21.5398C112.983 21.5398 112.03 21.416 112.03 21.2645C112.03 21.1131 112.486 19.7971 113.042 18.3394L114.055 15.6896L114.924 17.6714C115.401 18.7616 115.899 20.078 116.029 20.5965Z" fill="white"/>
<defs>
<linearGradient id="paint0_linear_2127_61" x1="18.9015" y1="0.598511" x2="18.9015" y2="38.4014" gradientUnits="userSpaceOnUse">
<stop stop-color="#3BA9F4"/>
<stop offset="1" stop-color="#4F54B2"/>
</linearGradient>
</defs>
</svg>
