<svg width="36" height="37" viewBox="0 0 36 37" fill="none" xmlns="http://www.w3.org/2000/svg">
<g clip-path="url(#clip0_2169_52)">
<path d="M0.539001 14.3496C2.94397 4.70161 12.7052 -1.1639 22.3535 1.24121C31.9876 3.63218 37.867 13.4076 35.4619 23.0557C33.0568 32.7034 23.2815 38.5681 13.6474 36.1631C3.99919 33.7581 -1.86597 23.9836 0.539001 14.3496ZM17.0917 10.5391C16.6559 10.4406 16.2339 10.3416 15.8261 10.2432V10.2295L13.0976 9.55469L12.5771 11.6641C12.5771 11.6641 14.0398 12.0016 14.0117 12.0156C14.8132 12.2125 14.9538 12.7471 14.9257 13.1689L13.998 16.8672C14.0542 16.8812 14.1247 16.8954 14.2089 16.9375C14.1387 16.9234 14.0682 16.9089 13.998 16.8809L12.704 22.0557C12.6056 22.2947 12.3521 22.6611 11.8036 22.5205C11.7978 22.5426 10.4012 22.1771 10.3701 22.1689L9.38568 24.4326L11.9589 25.0791C12.437 25.2056 12.9012 25.3188 13.3652 25.4453L12.5497 28.7217L14.5185 29.2139L15.3339 25.9658C15.8682 26.1064 16.403 26.2465 16.9091 26.373L16.1074 29.6074L18.0761 30.0996L18.8915 26.8232C22.2665 27.456 24.7978 27.2029 25.8525 24.1514C26.7103 21.7045 25.8099 20.2846 24.038 19.3564C25.3458 19.0611 26.3162 18.2027 26.5693 16.459C26.9207 14.0686 25.1073 12.7748 22.6044 11.917L23.4199 8.66895L21.4511 8.17676L20.663 11.3408C20.1428 11.2143 19.6085 11.0871 19.0742 10.9746L19.8622 7.79687L17.8935 7.30469L17.0917 10.5391ZM17.0634 19.2295C18.3994 19.567 22.7022 20.2279 22.0556 22.7871C21.4509 25.234 17.3163 23.9127 15.9804 23.5752L17.0634 19.2295ZM18.5536 13.2949C19.6646 13.5762 23.2512 14.0967 22.6747 16.417C22.1122 18.6529 18.6802 17.5137 17.5693 17.2324L18.5536 13.2949Z" fill="white"/>
</g>
<defs>
<clipPath id="clip0_2169_52">
<rect width="36" height="36" fill="white" transform="translate(0 0.702148)"/>
</clipPath>
</defs>
</svg>
