<svg width="26" height="30" viewBox="0 0 26 30" fill="none" xmlns="http://www.w3.org/2000/svg">
<path d="M6.81415 27.2282L6.59201 28.5651C6.53357 28.9754 6.82576 29.3271 7.29326 29.3271H12.0267C12.6111 29.3271 13.0786 28.9168 13.137 28.3893L14.1305 22.1758C14.1889 21.6483 14.7148 21.238 15.2408 21.238H15.942C20.5002 21.238 24.1233 19.3622 25.1752 13.9694C25.5842 11.742 25.4089 9.80761 24.2402 8.51803C24.1479 8.41003 24.0515 8.31016 23.9501 8.21626C23.9427 8.24262 23.9338 8.27164 23.9232 8.30269C23.2864 11.5787 21.8525 13.9077 19.766 15.3978C17.6823 16.886 15.0848 17.4391 12.3188 17.4391H9.63067C9.59054 17.4391 9.55919 17.4516 9.5308 17.4764C9.50158 17.5019 9.46875 17.5478 9.45383 17.6192L7.96511 27.2282H6.81415Z" fill="white"/>
<path d="M14.7732 0.0771484C17.9288 0.0771484 20.3832 0.721938 21.7273 2.3046C22.9545 3.71142 23.3051 5.23546 22.9545 7.52154C22.9276 7.60219 22.9131 7.68283 22.8996 7.75783C22.8837 7.84636 22.8692 7.92701 22.8376 7.99047C21.6688 14.2039 17.5782 16.3141 12.3188 16.3141H9.63067C8.98786 16.3141 8.46192 16.7831 8.34505 17.4278L7.00098 26.1032H1.39106C0.92356 26.1032 0.572934 25.6929 0.631372 25.2239L4.42982 1.19088C4.54669 0.546086 5.07263 0.0771484 5.71545 0.0771484L14.7732 0.0771484Z" fill="white"/>
</svg>
