<svg width="36" height="37" viewBox="0 0 36 37" fill="none" xmlns="http://www.w3.org/2000/svg">
<g clip-path="url(#clip0_2158_392)">
<path fill-rule="evenodd" clip-rule="evenodd" d="M18 36.7021C8.05838 36.7021 0 28.6438 0 18.7021C0 8.76052 8.05838 0.702148 18 0.702148C27.9416 0.702148 36 8.76052 36 18.7021C36 28.6438 27.9416 36.7021 18 36.7021ZM11.7304 22.3179L10.4085 27.7021H24.8929L25.875 23.6848H17.1877L18.1418 19.7664L19.7471 19.124L20.5121 16.0303L18.9259 16.6726L20.6347 9.70215L14.8646 9.70215L12.5235 19.1848L10.899 19.8373L10.125 22.9411L11.7304 22.3179Z" fill="white"/>
</g>
<defs>
<clipPath id="clip0_2158_392">
<rect width="36" height="36" fill="white" transform="translate(0 0.702148)"/>
</clipPath>
</defs>
</svg>
