<svg width="36" height="37" viewBox="0 0 36 37" fill="none" xmlns="http://www.w3.org/2000/svg">
<path d="M18 0.702148C27.9412 0.702148 35.9999 8.76101 36 18.7021C36 28.6434 27.9412 36.7021 18 36.7021C8.05886 36.7021 0 28.6433 0 18.7021C7.73099e-05 8.76106 8.05891 0.702226 18 0.702148ZM16.9824 30.3672L28.8877 15.8613L24.6738 11.8545L8.4375 8.86621L16.9824 30.3672ZM18.0928 27.2275L19.1982 18.0781L26.7217 16.7168L18.0928 27.2275ZM18.1182 17.5654L16.9512 27.2188L10.6562 11.375L18.1182 17.5654ZM26.8965 15.5322L20.1045 16.7617L24.4131 13.1709L26.8965 15.5322ZM23.1709 12.7305L18.6279 16.5156L11.4688 10.5771L23.1709 12.7305Z" fill="white"/>
</svg>
