<svg width="36" height="37" viewBox="0 0 36 37" fill="none" xmlns="http://www.w3.org/2000/svg">
<path d="M18 0.702148C27.9412 0.702148 35.9999 8.76101 36 18.7021C36 28.6434 27.9412 36.7021 18 36.7021C8.05886 36.7021 1.90735e-06 28.6433 1.90735e-06 18.7021C7.92172e-05 8.76106 8.05891 0.702226 18 0.702148ZM21.7705 6.95801C21.4962 6.82112 21.2218 6.95836 21.1543 7.23047C21.0857 7.29908 21.0859 7.36781 21.0859 7.50391V8.45996C21.0859 8.73315 21.2904 9.00523 21.4961 9.14258C26.8444 11.0551 29.5877 16.9958 27.5986 22.2529C26.5704 25.1216 24.3075 27.3052 21.4961 28.3301C21.2218 28.4662 21.086 28.6709 21.0859 29.0127V29.9688C21.0859 30.2409 21.2218 30.4459 21.4961 30.5146C21.5647 30.5146 21.7018 30.5146 21.7705 30.4473C23.3135 29.9654 24.7469 29.1833 25.9863 28.1455C27.2257 27.1078 28.2477 25.8346 28.9932 24.4004C29.7386 22.9662 30.1929 21.3986 30.3301 19.7881C30.4673 18.1774 30.2842 16.5554 29.792 15.0156C28.559 11.1231 25.5415 8.18652 21.7705 6.95801ZM14.5029 6.88965C14.4342 6.88965 14.297 6.88968 14.2285 6.95703C12.6856 7.43891 11.253 8.2211 10.0137 9.25879C8.77425 10.2965 7.75239 11.5696 7.00684 13.0039C6.26137 14.4381 5.80716 16.0057 5.66992 17.6162C5.53272 19.2269 5.71582 20.8489 6.20801 22.3887C7.44099 26.2136 10.389 29.1503 14.2285 30.3789C14.503 30.515 14.7782 30.3788 14.8457 30.1055C14.9142 30.038 14.9141 29.968 14.9141 29.832V28.876C14.9141 28.6712 14.7088 28.399 14.5029 28.2617C9.15483 26.3491 6.41239 20.4084 8.40137 15.1514C9.42964 12.2829 11.6918 10.0991 14.5029 9.07422C14.7774 8.93811 14.914 8.73355 14.9141 8.3916V7.43555C14.9141 7.16329 14.7774 6.95827 14.5029 6.88965ZM17.4512 10.4404C17.1778 10.4404 16.9719 10.6453 16.9033 10.9873V12.5576C14.8458 12.8299 13.5441 14.1957 13.5439 15.9033C13.5439 18.1555 14.914 19.0437 17.7939 19.3857C19.7143 19.7266 20.3311 20.1371 20.3311 21.2295C20.331 22.3207 19.3711 23.0723 18.0684 23.0723C16.2854 23.0722 15.6688 22.3217 15.4629 21.2969C15.3954 21.0246 15.1883 20.8877 14.9824 20.8877H13.8174C13.7541 20.8862 13.6906 20.8974 13.6318 20.9209C13.5734 20.9443 13.5202 20.979 13.4756 21.0234C13.4308 21.0681 13.3957 21.122 13.3721 21.1807C13.3485 21.2393 13.3365 21.302 13.3379 21.3652V21.4326C13.6113 23.1404 14.7094 24.3689 16.9717 24.7109V26.3506C16.9718 26.6227 17.1776 26.829 17.5195 26.8965H18.5488C18.8221 26.8965 19.028 26.6913 19.0967 26.3506V24.71C21.1543 24.3691 22.5234 22.9347 22.5234 21.0908C22.5229 18.7024 21.0844 17.884 18.2051 17.542C16.1488 17.2686 15.7374 16.7227 15.7373 15.7666C15.7373 14.8104 16.4238 14.1954 17.7939 14.1953C19.028 14.1953 19.7146 14.6052 20.0566 15.6299C20.0925 15.7288 20.1574 15.8151 20.2432 15.876C20.329 15.9369 20.4319 15.9695 20.5371 15.9707H21.6338C21.6971 15.9724 21.7604 15.9619 21.8193 15.9385C21.8782 15.9151 21.9317 15.8796 21.9766 15.835C22.0215 15.7903 22.0564 15.7365 22.0801 15.6777C22.1037 15.6191 22.1156 15.5564 22.1143 15.4932V15.4258C21.9802 14.6843 21.6049 14.0073 21.0469 13.501C20.4889 12.9947 19.7793 12.6866 19.0283 12.625V10.9873C19.0283 10.7139 18.8224 10.5091 18.4805 10.4404H17.4512Z" fill="white"/>
</svg>
