<svg width="36" height="37" viewBox="0 0 36 37" fill="none" xmlns="http://www.w3.org/2000/svg">
<path d="M18 0.702148C27.9412 0.702203 36 8.76098 36 18.7021C35.9998 28.6432 27.941 36.7021 18 36.7021C8.05891 36.7021 0.000186588 28.6432 0 18.7021C0 8.76094 8.05879 0.702148 18 0.702148ZM11.6328 22.6582C11.4584 22.6592 11.2911 22.728 11.166 22.8496L7.97266 26.0166C7.92643 26.0623 7.89471 26.1208 7.88184 26.1846C7.86898 26.2484 7.87544 26.3149 7.90039 26.375C7.9254 26.4352 7.96811 26.4865 8.02246 26.5225C8.07681 26.5584 8.1409 26.5777 8.20605 26.5771H24.3672C24.5418 26.5758 24.7101 26.5069 24.835 26.3848L28.0273 23.2178C28.0738 23.1722 28.1052 23.1135 28.1182 23.0498C28.1311 22.9859 28.1247 22.9195 28.0996 22.8594C28.0746 22.7992 28.032 22.7477 27.9775 22.7119C27.9233 22.6764 27.8598 22.6574 27.7949 22.6582H11.6328ZM8.20605 16.7051C8.14097 16.7045 8.07678 16.7229 8.02246 16.7588C7.96815 16.7947 7.92541 16.8461 7.90039 16.9062C7.87541 16.9664 7.86902 17.0329 7.88184 17.0967C7.89467 17.1604 7.92649 17.2189 7.97266 17.2646L11.166 20.4316C11.2898 20.5543 11.4584 20.623 11.6328 20.623H27.7949C27.8598 20.6235 27.9234 20.605 27.9775 20.5693C28.0318 20.5335 28.0746 20.4819 28.0996 20.4219C28.1246 20.3618 28.131 20.2953 28.1182 20.2314C28.1053 20.1676 28.0737 20.1083 28.0273 20.0625L24.835 16.8965C24.7099 16.7748 24.5417 16.7061 24.3672 16.7051H8.20605ZM11.6328 10.8271C11.4585 10.8282 11.291 10.8961 11.166 11.0176L7.97266 14.1855C7.92679 14.2313 7.8955 14.29 7.88281 14.3535C7.87017 14.4172 7.87738 14.484 7.90234 14.5439C7.92733 14.6037 7.96947 14.6546 8.02344 14.6904C8.07752 14.7263 8.14118 14.7454 8.20605 14.7451L24.3672 14.7451C24.5417 14.7441 24.7099 14.6754 24.835 14.5537L28.0273 11.3867C28.2352 11.1798 28.0882 10.8275 27.7949 10.8271L11.6328 10.8271Z" fill="white"/>
</svg>
