<svg width="414" height="115" viewBox="0 0 414 115" fill="none" xmlns="http://www.w3.org/2000/svg">
<path d="M151.666 49.4206L159.93 47.3263L163.383 57.9678L151.666 49.4206ZM170.685 35.6659H156.138L151.666 21.9678L147.195 35.6659H132.647L144.421 44.1565L139.949 57.8546L151.723 49.364L158.968 44.1565L170.685 35.6659Z" fill="#219653"/>
<path d="M185.438 31.4053V48.4678H182.521V31.4053H185.438ZM190.794 31.4053V33.749H177.212V31.4053H190.794ZM194.755 38.2021V48.4678H191.931V35.7881H194.626L194.755 38.2021ZM198.634 35.7061L198.61 38.3311C198.438 38.2998 198.251 38.2764 198.048 38.2607C197.853 38.2451 197.657 38.2373 197.462 38.2373C196.978 38.2373 196.552 38.3076 196.185 38.4482C195.817 38.5811 195.509 38.7764 195.259 39.0342C195.017 39.2842 194.829 39.5889 194.696 39.9482C194.563 40.3076 194.485 40.71 194.462 41.1553L193.817 41.2021C193.817 40.4053 193.896 39.667 194.052 38.9873C194.208 38.3076 194.442 37.71 194.755 37.1943C195.075 36.6787 195.474 36.2764 195.95 35.9873C196.435 35.6982 196.993 35.5537 197.626 35.5537C197.798 35.5537 197.981 35.5693 198.177 35.6006C198.38 35.6318 198.532 35.667 198.634 35.7061ZM208.032 45.4795V35.7881H210.868V48.4678H208.196L208.032 45.4795ZM208.431 42.8428L209.38 42.8193C209.38 43.6709 209.286 44.4561 209.099 45.1748C208.911 45.8857 208.622 46.5068 208.231 47.0381C207.841 47.5615 207.341 47.9717 206.731 48.2686C206.122 48.5576 205.392 48.7021 204.54 48.7021C203.923 48.7021 203.356 48.6123 202.841 48.4326C202.325 48.2529 201.88 47.9756 201.505 47.6006C201.138 47.2256 200.853 46.7373 200.649 46.1357C200.446 45.5342 200.345 44.8154 200.345 43.9795V35.7881H203.169V44.0029C203.169 44.4639 203.224 44.8506 203.333 45.1631C203.442 45.4678 203.591 45.7139 203.778 45.9014C203.966 46.0889 204.185 46.2217 204.435 46.2998C204.685 46.3779 204.95 46.417 205.231 46.417C206.036 46.417 206.669 46.2607 207.13 45.9482C207.599 45.6279 207.931 45.1982 208.126 44.6592C208.329 44.1201 208.431 43.5146 208.431 42.8428ZM220.876 45.0342C220.876 44.7529 220.806 44.499 220.665 44.2725C220.524 44.0381 220.255 43.8271 219.856 43.6396C219.466 43.4521 218.888 43.2803 218.122 43.124C217.45 42.9756 216.833 42.7998 216.271 42.5967C215.716 42.3857 215.239 42.1318 214.841 41.835C214.442 41.5381 214.134 41.1865 213.915 40.7803C213.696 40.374 213.587 39.9053 213.587 39.374C213.587 38.8584 213.7 38.3701 213.927 37.9092C214.153 37.4482 214.478 37.042 214.899 36.6904C215.321 36.3389 215.833 36.0615 216.435 35.8584C217.044 35.6553 217.724 35.5537 218.474 35.5537C219.536 35.5537 220.446 35.7334 221.204 36.0928C221.97 36.4443 222.556 36.9248 222.962 37.5342C223.368 38.1357 223.571 38.8154 223.571 39.5732H220.747C220.747 39.2373 220.661 38.9248 220.489 38.6357C220.325 38.3389 220.075 38.1006 219.739 37.9209C219.403 37.7334 218.981 37.6396 218.474 37.6396C217.989 37.6396 217.587 37.7178 217.267 37.874C216.954 38.0225 216.72 38.2178 216.563 38.46C216.415 38.7021 216.341 38.9678 216.341 39.2568C216.341 39.4678 216.38 39.6592 216.458 39.8311C216.544 39.9951 216.685 40.1475 216.88 40.2881C217.075 40.4209 217.341 40.5459 217.677 40.6631C218.021 40.7803 218.45 40.8936 218.966 41.0029C219.935 41.2061 220.767 41.4678 221.462 41.7881C222.165 42.1006 222.704 42.5068 223.079 43.0068C223.454 43.499 223.642 44.124 223.642 44.8818C223.642 45.4443 223.521 45.96 223.278 46.4287C223.044 46.8896 222.7 47.292 222.247 47.6357C221.794 47.9717 221.251 48.2334 220.618 48.4209C219.993 48.6084 219.29 48.7021 218.509 48.7021C217.36 48.7021 216.388 48.499 215.591 48.0928C214.794 47.6787 214.188 47.1514 213.774 46.5107C213.368 45.8623 213.165 45.1904 213.165 44.4951H215.896C215.927 45.0186 216.071 45.4365 216.329 45.749C216.595 46.0537 216.923 46.2764 217.313 46.417C217.712 46.5498 218.122 46.6162 218.544 46.6162C219.052 46.6162 219.478 46.5498 219.821 46.417C220.165 46.2764 220.427 46.0889 220.606 45.8545C220.786 45.6123 220.876 45.3389 220.876 45.0342ZM231.927 35.7881V37.8506H224.778V35.7881H231.927ZM226.841 32.6826H229.665V44.9639C229.665 45.3545 229.72 45.6553 229.829 45.8662C229.946 46.0693 230.106 46.2061 230.31 46.2764C230.513 46.3467 230.751 46.3818 231.024 46.3818C231.22 46.3818 231.407 46.3701 231.587 46.3467C231.767 46.3232 231.911 46.2998 232.021 46.2764L232.032 48.4326C231.798 48.5029 231.524 48.5654 231.212 48.6201C230.907 48.6748 230.556 48.7021 230.157 48.7021C229.509 48.7021 228.935 48.5889 228.435 48.3623C227.935 48.1279 227.544 47.749 227.263 47.2256C226.981 46.7021 226.841 46.0068 226.841 45.1396V32.6826ZM236.942 38.2256V53.3428H234.118V35.7881H236.72L236.942 38.2256ZM245.204 42.0107V42.2568C245.204 43.1787 245.095 44.0342 244.876 44.8232C244.665 45.6045 244.349 46.2881 243.927 46.874C243.513 47.4521 243.001 47.9014 242.392 48.2217C241.782 48.542 241.079 48.7021 240.282 48.7021C239.493 48.7021 238.802 48.5576 238.208 48.2686C237.622 47.9717 237.126 47.5537 236.72 47.0146C236.313 46.4756 235.985 45.8428 235.735 45.1162C235.493 44.3818 235.321 43.5771 235.22 42.7021V41.7529C235.321 40.8232 235.493 39.9795 235.735 39.2217C235.985 38.4639 236.313 37.8115 236.72 37.2646C237.126 36.7178 237.622 36.2959 238.208 35.999C238.794 35.7021 239.478 35.5537 240.259 35.5537C241.056 35.5537 241.763 35.71 242.38 36.0225C242.997 36.3271 243.517 36.7646 243.938 37.335C244.36 37.8975 244.677 38.5771 244.888 39.374C245.099 40.1631 245.204 41.042 245.204 42.0107ZM242.38 42.2568V42.0107C242.38 41.4248 242.325 40.8818 242.216 40.3818C242.106 39.874 241.935 39.4287 241.7 39.0459C241.466 38.6631 241.165 38.3662 240.798 38.1553C240.438 37.9365 240.005 37.8271 239.497 37.8271C238.997 37.8271 238.567 37.9131 238.208 38.085C237.849 38.249 237.548 38.4795 237.306 38.7764C237.063 39.0732 236.876 39.4209 236.743 39.8193C236.61 40.21 236.517 40.6357 236.462 41.0967V43.3701C236.556 43.9326 236.716 44.4482 236.942 44.917C237.169 45.3857 237.489 45.7607 237.903 46.042C238.325 46.3154 238.864 46.4521 239.521 46.4521C240.028 46.4521 240.462 46.3428 240.821 46.124C241.181 45.9053 241.474 45.6045 241.7 45.2217C241.935 44.8311 242.106 44.3818 242.216 43.874C242.325 43.3662 242.38 42.8271 242.38 42.2568ZM250.63 35.7881V48.4678H247.794V35.7881H250.63ZM247.606 32.46C247.606 32.0303 247.747 31.6748 248.028 31.3936C248.317 31.1045 248.716 30.96 249.224 30.96C249.724 30.96 250.118 31.1045 250.407 31.3936C250.696 31.6748 250.841 32.0303 250.841 32.46C250.841 32.8818 250.696 33.2334 250.407 33.5146C250.118 33.7959 249.724 33.9365 249.224 33.9365C248.716 33.9365 248.317 33.7959 248.028 33.5146C247.747 33.2334 247.606 32.8818 247.606 32.46ZM256.747 30.4678V48.4678H253.911V30.4678H256.747ZM259.302 42.2686V41.999C259.302 41.085 259.435 40.2373 259.7 39.4561C259.966 38.667 260.349 37.9834 260.849 37.4053C261.356 36.8193 261.974 36.3662 262.7 36.0459C263.435 35.7178 264.263 35.5537 265.185 35.5537C266.114 35.5537 266.942 35.7178 267.669 36.0459C268.403 36.3662 269.024 36.8193 269.532 37.4053C270.04 37.9834 270.427 38.667 270.692 39.4561C270.958 40.2373 271.091 41.085 271.091 41.999V42.2686C271.091 43.1826 270.958 44.0303 270.692 44.8115C270.427 45.5928 270.04 46.2764 269.532 46.8623C269.024 47.4404 268.407 47.8936 267.681 48.2217C266.954 48.542 266.13 48.7021 265.208 48.7021C264.278 48.7021 263.446 48.542 262.712 48.2217C261.985 47.8936 261.368 47.4404 260.86 46.8623C260.353 46.2764 259.966 45.5928 259.7 44.8115C259.435 44.0303 259.302 43.1826 259.302 42.2686ZM262.126 41.999V42.2686C262.126 42.8389 262.185 43.3779 262.302 43.8857C262.419 44.3936 262.603 44.8389 262.853 45.2217C263.103 45.6045 263.423 45.9053 263.813 46.124C264.204 46.3428 264.669 46.4521 265.208 46.4521C265.731 46.4521 266.185 46.3428 266.567 46.124C266.958 45.9053 267.278 45.6045 267.528 45.2217C267.778 44.8389 267.962 44.3936 268.079 43.8857C268.204 43.3779 268.267 42.8389 268.267 42.2686V41.999C268.267 41.4365 268.204 40.9053 268.079 40.4053C267.962 39.8975 267.774 39.4482 267.517 39.0576C267.267 38.667 266.946 38.3623 266.556 38.1436C266.173 37.917 265.716 37.8037 265.185 37.8037C264.653 37.8037 264.192 37.917 263.802 38.1436C263.419 38.3623 263.103 38.667 262.853 39.0576C262.603 39.4482 262.419 39.8975 262.302 40.4053C262.185 40.9053 262.126 41.4365 262.126 41.999ZM279.271 35.7881V37.8506H272.122V35.7881H279.271ZM274.185 32.6826H277.009V44.9639C277.009 45.3545 277.063 45.6553 277.173 45.8662C277.29 46.0693 277.45 46.2061 277.653 46.2764C277.856 46.3467 278.095 46.3818 278.368 46.3818C278.563 46.3818 278.751 46.3701 278.931 46.3467C279.11 46.3232 279.255 46.2998 279.364 46.2764L279.376 48.4326C279.142 48.5029 278.868 48.5654 278.556 48.6201C278.251 48.6748 277.899 48.7021 277.501 48.7021C276.853 48.7021 276.278 48.5889 275.778 48.3623C275.278 48.1279 274.888 47.749 274.606 47.2256C274.325 46.7021 274.185 46.0068 274.185 45.1396V32.6826Z" fill="white"/>
<rect width="20" height="20" transform="translate(110.667 74.4678)" fill="#219653"/>
<path d="M120.667 88.1439L123.709 87.3294L124.979 91.4678L120.667 88.1439ZM127.667 82.7948H122.313L120.667 77.4678L119.021 82.7948H113.667L118 86.0967L116.354 91.4237L120.688 88.1219L123.354 86.0967L127.667 82.7948Z" fill="white"/>
<rect width="20" height="20" transform="translate(132.667 74.4678)" fill="#219653"/>
<path d="M142.667 88.1439L145.709 87.3294L146.979 91.4678L142.667 88.1439ZM149.667 82.7948H144.313L142.667 77.4678L141.021 82.7948H135.667L140 86.0967L138.354 91.4237L142.688 88.1219L145.354 86.0967L149.667 82.7948Z" fill="white"/>
<rect width="20" height="20" transform="translate(154.667 74.4678)" fill="#219653"/>
<path d="M164.667 88.1439L167.709 87.3294L168.979 91.4678L164.667 88.1439ZM171.667 82.7948H166.313L164.667 77.4678L163.021 82.7948H157.667L162 86.0967L160.354 91.4237L164.688 88.1219L167.354 86.0967L171.667 82.7948Z" fill="white"/>
<rect width="20" height="20" transform="translate(176.667 74.4678)" fill="#219653"/>
<path d="M186.667 88.1439L189.709 87.3294L190.979 91.4678L186.667 88.1439ZM193.667 82.7948H188.313L186.667 77.4678L185.021 82.7948H179.667L184 86.0967L182.354 91.4237L186.688 88.1219L189.354 86.0967L193.667 82.7948Z" fill="white"/>
<rect width="20" height="20" transform="translate(198.667 74.4678)" fill="#219653"/>
<path d="M208.667 88.1439L211.709 87.3294L212.979 91.4678L208.667 88.1439ZM215.667 82.7948H210.313L208.667 77.4678L207.021 82.7948H201.667L206 86.0967L204.354 91.4237L208.688 88.1219L211.354 86.0967L215.667 82.7948Z" fill="white"/>
<path d="M232.398 87.3618H239.382V89.4678H229.914V76.6878H239.292V78.7938H232.398V81.9258H238.608V83.8518H232.398V87.3618ZM243.288 84.7878L240.066 80.2878H242.496L244.494 83.0958L246.492 80.2878H248.868L245.664 84.7518L249.048 89.4678H246.6L244.458 86.4618L242.316 89.4678H239.904L243.288 84.7878ZM257.756 86.3358C257.342 88.4958 255.74 89.6838 253.508 89.6838C250.736 89.6838 248.846 87.6498 248.846 84.8778C248.846 82.1418 250.718 80.1078 253.49 80.1078C255.74 80.1078 257.342 81.3318 257.756 83.4378H255.47C255.236 82.3938 254.588 81.7638 253.526 81.7638C252.068 81.7638 251.258 83.0418 251.258 84.8778C251.258 86.7318 252.068 88.0278 253.526 88.0278C254.678 88.0278 255.236 87.3438 255.47 86.3358H257.756ZM258.532 84.8778C258.532 82.1418 260.386 80.1078 263.194 80.1078C266.074 80.1078 267.856 82.3578 267.748 85.3818H260.872C260.962 87.0558 261.826 88.0638 263.248 88.0638C264.382 88.0638 265.012 87.3978 265.3 86.5518H267.568C267.064 88.3338 265.57 89.6838 263.23 89.6838C260.422 89.6838 258.532 87.6498 258.532 84.8778ZM265.444 83.9598C265.228 82.6098 264.454 81.7098 263.194 81.7098C261.934 81.7098 261.142 82.5918 260.944 83.9598H265.444ZM269.09 76.6878H271.358V89.4678H269.09V76.6878ZM273.186 76.6878H275.454V89.4678H273.186V76.6878ZM276.813 84.8778C276.813 82.1418 278.667 80.1078 281.475 80.1078C284.355 80.1078 286.137 82.3578 286.029 85.3818H279.153C279.243 87.0558 280.107 88.0638 281.529 88.0638C282.663 88.0638 283.293 87.3978 283.581 86.5518H285.849C285.345 88.3338 283.851 89.6838 281.511 89.6838C278.703 89.6838 276.813 87.6498 276.813 84.8778ZM283.725 83.9598C283.509 82.6098 282.735 81.7098 281.475 81.7098C280.215 81.7098 279.423 82.5918 279.225 83.9598H283.725ZM287.371 80.2878H289.603V81.7818C290.125 80.8998 291.025 80.1078 292.591 80.1078C294.571 80.1078 295.615 81.3138 295.615 83.1858V89.4678H293.329V83.6898C293.329 82.5738 292.879 81.8898 291.655 81.8898C290.485 81.8898 289.639 82.8078 289.639 84.2478V89.4678H287.371V80.2878ZM302.181 81.8538H300.165V86.8218C300.165 87.6138 300.363 87.8298 301.101 87.8298H302.181V89.4678H300.363C298.491 89.4678 297.897 88.6758 297.897 86.9838V81.8538H296.529V80.2878H297.897V77.8398H300.165V80.2878H302.181V81.8538Z" fill="white"/>
</svg>
