<svg width="15" height="17" viewBox="0 0 15 17" fill="none" xmlns="http://www.w3.org/2000/svg">
<path d="M12.166 4.36334C12.7469 4.48378 13.1851 4.68478 13.5373 5.02026C14.416 5.8572 14.416 7.20424 14.416 9.89833C14.416 12.5924 14.416 13.9395 13.5373 14.7764C12.6587 15.6133 11.2444 15.6133 8.41602 15.6133H6.91602C4.08759 15.6133 2.67338 15.6133 1.7947 14.7764C0.916016 13.9395 0.916016 12.5924 0.916016 9.89833C0.916016 7.20424 0.916016 5.8572 1.7947 5.02026C2.1469 4.68478 2.58514 4.48378 3.16602 4.36334" stroke="white" stroke-width="1.125" stroke-linecap="round"/>
<path d="M7.68498 0.613736L7.66602 9.61334M7.68498 0.613736C7.56301 0.608683 7.44031 0.652275 7.33101 0.744529C6.65116 1.31839 5.41602 2.80998 5.41602 2.80998M7.68498 0.613736C7.79435 0.618266 7.90313 0.66191 8.00113 0.744655C8.68084 1.31862 9.91602 2.80998 9.91602 2.80998" stroke="white" stroke-width="1.125" stroke-linecap="round" stroke-linejoin="round"/>
</svg>
