<svg width="26" height="19" viewBox="0 0 26 19" fill="none" xmlns="http://www.w3.org/2000/svg">
<path d="M24.7339 3.54273C24.5944 3.02477 24.3214 2.55251 23.9421 2.17321C23.5628 1.79392 23.0906 1.5209 22.5726 1.38148C20.6651 0.865235 13.0001 0.865234 13.0001 0.865234C13.0001 0.865234 5.33512 0.865235 3.42762 1.38148C2.90965 1.5209 2.43739 1.79392 2.0581 2.17321C1.6788 2.55251 1.40579 3.02477 1.26637 3.54273C0.909528 5.488 0.736681 7.46255 0.750117 9.44023C0.736681 11.4179 0.909528 13.3925 1.26637 15.3377C1.40579 15.8557 1.6788 16.328 2.0581 16.7073C2.43739 17.0865 2.90965 17.3596 3.42762 17.499C5.33512 18.0152 13.0001 18.0152 13.0001 18.0152C13.0001 18.0152 20.6651 18.0152 22.5726 17.499C23.0906 17.3596 23.5628 17.0865 23.9421 16.7073C24.3214 16.328 24.5944 15.8557 24.7339 15.3377C25.0907 13.3925 25.2636 11.4179 25.2501 9.44023C25.2636 7.46255 25.0907 5.488 24.7339 3.54273ZM10.5501 13.1152V5.76523L16.9114 9.44023L10.5501 13.1152Z" fill="white"/>
</svg>
